HIERARCHY
ROOT SpineBase
{
  OFFSET 0.000000 0.000000 0.000000
  CHANNELS 6 Xposition Yposition Zposition Zrotation Xrotation Yrotation
  JOINT SpineMid
  {
    OFFSET 0.000000 32.234412 0.000000
    CHANNELS 3 Zrotation Xrotation Yrotation
    JOINT SpineShoulder
    {
      OFFSET 0.251088 23.883084 -0.765857
      CHANNELS 3 Zrotation Xrotation Yrotation
      JOINT Neck
      {
        OFFSET 0.188790 7.877288 -0.573278
        CHANNELS 3 Zrotation Xrotation Yrotation
        JOINT Head
        {
          OFFSET 4.867276 14.264598 2.321897
          CHANNELS 3 Zrotation Xrotation Yrotation
          End Site
          {
            OFFSET 0 0 0
          }
        }
      }
      JOINT ShoulderLeft
      {
        OFFSET -11.432287 -2.760578 -11.313674
        CHANNELS 3 Zrotation Xrotation Yrotation
        JOINT ElbowLeft
        {
          OFFSET -6.228361 -22.780002 -3.944036
          CHANNELS 3 Zrotation Xrotation Yrotation
          JOINT WristLeft
          {
            OFFSET 2.345418 -27.097485 -7.195190
            CHANNELS 3 Zrotation Xrotation Yrotation
            JOINT HandLeft
            {
              OFFSET 1.787087 -7.972732 0.307095
              CHANNELS 3 Zrotation Xrotation Yrotation
              JOINT HandTipLeft
              {
                OFFSET 0.587495 -7.167273 -2.201467
                CHANNELS 3 Zrotation Xrotation Yrotation
                End Site
                {
                  OFFSET 0 0 0
                }
              }
              JOINT ThumbLeft
              {
                OFFSET 3.784366 -0.447861 2.358314
                CHANNELS 3 Zrotation Xrotation Yrotation
                End Site
                {
                  OFFSET 0 0 0
                }
              }
            }
          }
        }
      }
      JOINT ShoulderRight
      {
        OFFSET 13.933401 -5.080065 12.824769
        CHANNELS 3 Zrotation Xrotation Yrotation
        JOINT ElbowRight
        {
          OFFSET 1.299155 -29.992873 1.670108
          CHANNELS 3 Zrotation Xrotation Yrotation
          JOINT WristRight
          {
            OFFSET 6.004542 -21.500017 -4.246516
            CHANNELS 3 Zrotation Xrotation Yrotation
            JOINT HandRight
            {
              OFFSET 1.999810 -6.171698 -2.791577
              CHANNELS 3 Zrotation Xrotation Yrotation
              JOINT HandTipRight
              {
                OFFSET -0.465215 -5.494261 -1.309890
                CHANNELS 3 Zrotation Xrotation Yrotation
                End Site
                {
                  OFFSET 0 0 0
                }
              }
              JOINT ThumbRight
              {
                OFFSET -1.776243 -1.551151 -2.910621
                CHANNELS 3 Zrotation Xrotation Yrotation
                End Site
                {
                  OFFSET 0 0 0
                }
              }
            }
          }
        }
      }
    }
  }
  JOINT HipLeft
  {
    OFFSET -4.083063 1.463902 -8.052312
    CHANNELS 3 Zrotation Xrotation Yrotation
    JOINT KneeLeft
    {
      OFFSET -8.913395 -30.750500 -1.708374
      CHANNELS 3 Zrotation Xrotation Yrotation
      JOINT AnkleLeft
      {
        OFFSET -9.112457 -37.984057 7.708058
        CHANNELS 3 Zrotation Xrotation Yrotation
        JOINT FootLeft
        {
          OFFSET 8.132708 -4.322464 -10.877676
          CHANNELS 3 Zrotation Xrotation Yrotation
          End Site
          {
            OFFSET 0 0 0
          }
        }
      }
    }
  }
  JOINT HipRight
  {
    OFFSET 6.278767 -0.159482 1.170170
    CHANNELS 3 Zrotation Xrotation Yrotation
    JOINT KneeRight
    {
      OFFSET 1.286933 -33.766768 1.137329
      CHANNELS 3 Zrotation Xrotation Yrotation
      JOINT AnkleRight
      {
        OFFSET 0.429787 -36.591506 10.746421
        CHANNELS 3 Zrotation Xrotation Yrotation
        JOINT FootRight
        {
          OFFSET 7.821175 -4.310259 -10.976599
          CHANNELS 3 Zrotation Xrotation Yrotation
          End Site
          {
            OFFSET 0 0 0
          }
        }
      }
    }
  }
}
MOTION
Frames: 9
Frame Time: 0.033333
-100.354274 76.020087 317.247414 -0.000000 0.000000 -41.670482 0.000000 -0.000000 41.670482 -0.000000 0.000000 0.000000 -0.000000 0.000000 0.000000 0.000000 0.000000 0.000000 -0.000000 0.000000 0.000000 -0.000000 0.000000 0.000000 -0.000000 0.000000 0.000000 -0.000000 0.000000 0.000000 0.000000 0.000000 0.000000 0.000000 0.000000 0.000000 -0.000000 0.000000 0.000000 -0.000000 0.000000 0.000000 -0.000000 0.000000 0.000000 -0.000000 0.000000 0.000000 0.000000 0.000000 0.000000 0.000000 0.000000 0.000000 0.000000 -0.000000 41.670482 -0.000000 0.000000 0.000000 -0.000000 0.000000 0.000000 0.000000 0.000000 0.000000 0.000000 -0.000000 41.670482 -0.000000 0.000000 0.000000 -0.000000 0.000000 0.000000 0.000000 0.000000 0.000000
-99.744927 76.010000 317.197227 0.028543 0.042904 -41.778170 0.007300 -0.051012 41.778162 -0.000000 0.000000 0.000000 -0.000000 0.000000 0.000000 0.000000 0.000000 0.000000 0.522261 -1.622374 0.361918 -0.758656 0.386770 -0.386968 0.238031 1.240445 0.041463 -1.297958 -3.001225 0.119699 0.000000 0.000000 0.000000 0.000000 0.000000 0.000000 -0.000000 0.000000 0.000000 0.404940 1.247211 0.263121 -0.370286 0.003073 0.115456 3.113301 0.800054 -1.298042 0.000000 0.000000 0.000000 0.000000 0.000000 0.000000 0.007300 -0.051012 41.778162 -0.000000 0.000000 0.000000 -0.000000 0.000000 0.000000 0.000000 0.000000 0.000000 0.007300 -0.051012 41.778162 -0.000000 0.000000 0.000000 -0.000000 0.000000 0.000000 0.000000 0.000000 0.000000
-99.203865 75.995279 317.162593 0.022196 0.092818 -41.816272 0.045344 -0.083975 41.816288 -0.000000 0.000000 0.000000 -0.575589 -1.145580 0.478793 0.000000 0.000000 0.000000 0.911305 -2.861602 0.651772 -1.395341 0.609269 -0.657389 0.489281 2.267953 0.056406 -2.316302 -5.779930 0.122539 0.000000 0.000000 0.000000 0.000000 0.000000 0.000000 -0.000000 0.000000 0.000000 0.609129 2.343696 0.518998 -1.143997 -0.214331 0.365766 6.266468 1.263767 -2.522304 0.000000 0.000000 0.000000 0.000000 0.000000 0.000000 0.328228 -1.397592 42.194933 -0.047650 1.594453 -0.613350 0.560166 -0.169274 1.139280 0.000000 0.000000 0.000000 -0.655711 -1.313290 41.745405 1.341592 0.450301 0.057061 -0.176993 0.242588 0.888979 0.000000 0.000000 0.000000
-98.731088 75.975922 317.143510 -0.019122 0.149764 -41.785593 0.114053 -0.098928 41.785716 -0.000000 0.000000 0.000000 -0.792644 -1.710231 0.700830 0.000000 0.000000 0.000000 1.170550 -3.744715 0.867130 -1.909629 0.736768 -0.824609 0.749188 3.035653 0.043694 -3.068245 -8.341669 0.034737 0.000000 0.000000 0.000000 0.000000 0.000000 0.000000 -0.000000 0.000000 0.000000 0.613921 3.288455 0.774214 -2.352377 -0.659598 0.746204 9.569497 1.481359 -3.719571 0.000000 0.000000 0.000000 0.000000 0.000000 0.000000 0.540428 -1.869040 42.305142 -0.189103 2.227411 -0.854750 0.826912 -0.247133 1.676164 0.000000 0.000000 0.000000 -0.824392 -1.787415 41.684602 0.922210 0.608861 -0.179773 0.636465 0.382231 1.571865 0.000000 0.000000 0.000000
-98.326595 75.951931 317.139980 -0.095503 0.213764 -41.686696 0.213486 -0.096122 41.687053 -0.000000 0.000000 0.000000 -0.964170 -2.271480 0.913297 0.000000 0.000000 0.000000 1.302496 -4.291815 1.006914 -2.298304 0.823355 -0.898732 0.297473 5.225465 0.417068 -2.950810 -12.396101 -0.587450 0.000000 0.000000 0.000000 0.000000 0.000000 0.000000 -0.091434 0.882071 0.033836 0.513273 3.198527 1.007808 -4.038848 -1.354613 1.248662 13.130252 1.512245 -4.943896 0.000000 0.000000 0.000000 0.000000 0.000000 0.000000 0.782750 -2.200305 42.316909 -0.402343 2.757506 -1.055331 1.082443 -0.318839 2.190269 0.000000 0.000000 0.000000 -0.889197 -2.139658 41.561738 0.967478 0.792188 -0.250975 0.862327 0.463948 2.063582 0.000000 0.000000 0.000000
-97.990387 75.923305 317.152001 -0.207043 0.284843 -41.519917 0.343835 -0.076022 41.520660 -0.000000 0.000000 0.000000 -1.090980 -2.830861 1.117584 0.000000 0.000000 0.000000 1.308613 -4.515890 1.070991 -2.556487 0.903801 -0.887277 -0.284077 6.952236 0.765411 -2.504164 -16.124424 -1.221507 0.000000 0.000000 0.000000 0.000000 0.000000 0.000000 -0.309754 1.100933 0.033438 0.341014 3.619198 1.274253 -6.256617 -2.336284 1.857733 17.048939 1.386891 -6.253964 0.000000 0.000000 0.000000 0.000000 0.000000 0.000000 1.055320 -2.397516 42.231472 -0.683943 3.187752 -1.216860 1.325091 -0.383323 2.680932 0.000000 0.000000 0.000000 -0.850599 -2.370658 41.378406 0.884873 0.966205 -0.326052 1.092765 0.522706 2.538767 0.000000 0.000000 0.000000
-97.792720 75.884332 317.195718 -0.429741 0.362519 -41.250673 0.562119 0.010805 41.251979 -0.000000 0.000000 0.000000 -1.169147 -3.337069 1.296809 0.000000 0.000000 0.000000 1.042493 -4.140600 0.998485 -2.478977 1.226091 -0.721943 -1.655678 7.806495 1.098845 -1.624978 -19.146441 -1.692918 0.000000 0.000000 0.000000 0.000000 0.000000 0.000000 -0.756858 1.309931 0.023271 -0.121955 4.010067 1.663523 -10.590279 -4.327630 2.912543 23.152050 1.275215 -8.405581 0.000000 0.000000 0.000000 0.000000 0.000000 0.000000 1.511859 -2.346027 42.012478 -1.145760 3.557250 -1.339843 1.552080 -0.480286 3.115047 0.000000 0.000000 0.000000 -0.582052 -2.245596 41.114592 0.434581 1.030340 -0.431817 1.396218 0.550062 2.978189 0.000000 0.000000 0.000000
-97.633347 75.854823 317.241230 -0.656257 0.478913 -40.943624 -0.107203 0.094054 40.918995 0.039735 0.071247 -0.034065 -0.495682 -4.639917 1.549798 0.000000 0.000000 0.000000 1.434754 -4.293751 0.956223 -2.423786 1.212827 -0.530818 -3.617095 10.949500 2.088635 -0.004734 -25.755236 -2.995695 0.000000 0.000000 0.000000 0.000000 0.000000 0.000000 -0.510674 0.829543 0.070215 -0.636469 4.140860 1.977938 -15.143048 -6.763033 3.661103 28.988551 0.480270 -10.427814 0.000000 0.000000 0.000000 0.000000 0.000000 0.000000 1.895109 -2.228141 41.713066 -1.559175 3.716977 -1.402884 1.739333 -0.509612 3.515453 0.000000 0.000000 0.000000 -0.216830 -2.179589 40.812090 0.019221 1.212926 -0.513880 1.637042 0.528835 3.390937 0.000000 0.000000 0.000000
-97.464976 75.808580 317.302979 -0.845318 0.557722 -40.553271 -0.107434 0.099239 40.523417 0.044244 0.068960 -0.042252 -0.363561 -5.283729 1.759318 0.000000 0.000000 0.000000 1.206157 -3.620624 0.815464 -2.227420 0.956101 -0.317017 -5.260564 13.849168 3.084298 2.534084 -31.287353 -3.995346 0.000000 0.000000 0.000000 0.000000 0.000000 0.000000 -0.828987 0.986165 0.071219 -0.956037 4.060850 2.225802 -18.668895 -8.675408 4.100918 32.603713 0.028719 -11.891444 0.000000 0.000000 0.000000 0.000000 0.000000 0.000000 2.201250 -2.047589 41.308488 -2.060700 3.801893 -1.453023 1.972893 -0.513703 3.983594 0.000000 0.000000 0.000000 0.055091 -2.166063 40.421971 -0.284428 1.416203 -0.578450 1.816790 0.517361 3.847893 0.000000 0.000000 0.000000
